<?xml version="1.0" standalone="no"?>
<!DOCTYPE svg PUBLIC "-//W3C//DTD SVG 20010904//EN"
 "http://www.w3.org/TR/2001/REC-SVG-20010904/DTD/svg10.dtd">
<svg version="1.0" xmlns="http://www.w3.org/2000/svg"
 width="433.000000pt" height="116.000000pt" viewBox="0 0 433.000000 116.000000"
 preserveAspectRatio="xMidYMid meet">

<g transform="translate(0.000000,116.000000) scale(0.100000,-0.100000)"
fill="#000000" stroke="none">
<path d="M305 1150 c-147 -21 -248 -89 -276 -185 -8 -30 -14 -92 -14 -156 1
-95 4 -111 29 -163 22 -46 38 -62 79 -86 62 -35 78 -38 313 -54 237 -16 255
-27 253 -154 -1 -142 -30 -162 -240 -162 -81 0 -160 5 -178 11 -38 13 -60 52
-68 120 l-6 49 -95 0 -95 0 7 -81 c7 -88 25 -141 59 -177 30 -33 121 -77 185
-91 68 -14 316 -14 384 0 109 23 194 87 222 166 36 102 28 301 -14 371 -24 39
-93 79 -158 92 -28 5 -125 14 -217 20 -228 14 -251 26 -262 133 -7 73 13 126
57 151 31 19 52 21 175 21 165 0 197 -11 214 -73 6 -20 11 -47 11 -59 0 -22 3
-23 96 -23 l97 0 -6 74 c-13 180 -118 253 -372 261 -66 2 -147 0 -180 -5z"/>
<path d="M3250 1144 c0 -5 341 -496 357 -514 6 -6 38 34 89 107 l35 51 -118
181 -118 181 -122 0 c-68 0 -123 -3 -123 -6z"/>
<path d="M4113 1131 c-73 -25 -112 -58 -190 -163 -188 -251 -703 -950 -703
-954 0 -2 55 -4 123 -4 l122 1 135 186 c74 102 140 192 146 201 9 12 31 -13
117 -131 163 -221 209 -254 367 -264 l90 -6 0 105 0 106 -74 4 c-43 2 -80 9
-90 17 -25 21 -258 341 -260 357 -2 20 216 310 250 333 22 15 54 24 103 28
l71 6 0 98 0 99 -77 0 c-48 -1 -98 -8 -130 -19z"/>
<path d="M1162 845 c-108 -24 -169 -77 -199 -172 -20 -65 -28 -288 -14 -393
21 -157 75 -227 198 -256 71 -17 301 -20 374 -5 118 25 176 87 186 201 l6 60
-102 0 -101 0 0 -35 c0 -56 -33 -82 -113 -90 -37 -4 -88 -4 -114 0 -102 15
-130 52 -135 171 l-3 69 284 3 283 2 -4 128 c-3 115 -6 133 -32 185 -30 63
-70 98 -137 123 -62 23 -292 29 -377 9z m297 -150 c33 -17 49 -52 53 -120 l3
-50 -184 -3 -183 -2 4 64 c4 67 22 100 63 117 36 14 213 10 244 -6z"/>
<path d="M2035 854 c-145 -21 -222 -101 -246 -256 -15 -98 -6 -336 16 -408 24
-77 90 -140 171 -163 70 -20 318 -23 394 -6 107 24 162 98 175 237 l7 72 -100
0 -99 0 -6 -51 c-12 -99 -54 -124 -195 -118 -142 7 -162 42 -163 279 -2 231
19 260 181 260 124 0 153 -17 166 -97 l6 -43 94 0 94 0 0 43 c0 24 -7 66 -15
95 -35 117 -107 153 -315 157 -74 2 -148 1 -165 -1z"/>
<path d="M2610 548 c0 -308 8 -368 53 -437 38 -57 111 -89 228 -102 102 -11
206 -4 255 16 22 9 60 51 123 136 l91 123 0 273 0 273 -100 0 -100 0 -1 -277
c0 -324 -3 -337 -69 -370 -57 -29 -167 -32 -220 -5 -55 27 -59 51 -59 370 l-1
282 -100 0 -100 0 0 -282z"/>
</g>
</svg>
